<?xml version="1.0" encoding="UTF-8" standalone="no"?>
<svg
   xmlns:dc="http://purl.org/dc/elements/1.1/"
   xmlns:cc="http://creativecommons.org/ns#"
   xmlns:rdf="http://www.w3.org/1999/02/22-rdf-syntax-ns#"
   xmlns:svg="http://www.w3.org/2000/svg"
   xmlns="http://www.w3.org/2000/svg"
   xmlns:sodipodi="http://sodipodi.sourceforge.net/DTD/sodipodi-0.dtd"
   xmlns:inkscape="http://www.inkscape.org/namespaces/inkscape"
   version="1.1"
   width="1027"
   height="916"
   id="svg866"
   sodipodi:docname="UseCaseDiagram.svg"
   inkscape:version="0.92.4 (5da689c313, 2019-01-14)">
  <metadata
     id="metadata870">
    <rdf:RDF>
      <cc:Work
         rdf:about="">
        <dc:format>image/svg+xml</dc:format>
        <dc:type
           rdf:resource="http://purl.org/dc/dcmitype/StillImage" />
        <dc:title></dc:title>
      </cc:Work>
    </rdf:RDF>
  </metadata>
  <sodipodi:namedview
     pagecolor="#ffffff"
     bordercolor="#666666"
     borderopacity="1"
     objecttolerance="10"
     gridtolerance="10"
     guidetolerance="10"
     inkscape:pageopacity="0"
     inkscape:pageshadow="2"
     inkscape:window-width="1920"
     inkscape:window-height="1057"
     id="namedview868"
     showgrid="false"
     inkscape:zoom="0.7287214"
     inkscape:cx="631.7669"
     inkscape:cy="476.31388"
     inkscape:window-x="-8"
     inkscape:window-y="-8"
     inkscape:window-maximized="1"
     inkscape:current-layer="g864" />
  <defs
     id="defs2" />
  <g
     id="g864">
    <g
       transform="translate(-6,-6)"
       id="g378">
      <rect
         x="319"
         y="23"
         width="712"
         height="896"
         id="rect376"
         style="opacity:0.2;fill:#c0c0c0;stroke:none" />
    </g>
    <g
       transform="translate(-6,-6)"
       id="g382">
      <rect
         x="312"
         y="16"
         width="712"
         height="896"
         id="rect380"
         style="fill:#ffffff;stroke:none" />
    </g>
    <g
       transform="translate(-6,-6)"
       id="g386">
      <path
         d="m 312,16 h 712 V 912 H 312 Z"
         stroke-miterlimit="10"
         id="path384"
         inkscape:connector-curvature="0"
         style="fill:none;stroke:#000000;stroke-miterlimit:10" />
    </g>
    <g
       transform="translate(-6,-6)"
       id="g394">
      <g
         id="g392">
        <path
           id="path388"
           d=""
           inkscape:connector-curvature="0"
           style="fill:none;stroke:none" />
        <text
           font-size="20px"
           font-style="normal"
           font-weight="bold"
           text-decoration="none"
           x="596.06641"
           y="42.5"
           id="text390"
           style="font-style:normal;font-weight:bold;font-size:20px;font-family:'Times New Roman';text-decoration:none;text-decoration-line:none;fill:#000000;stroke:none">Operating System</text>
      </g>
    </g>
    <g
       transform="translate(-6,-6)"
       id="g398">
      <rect
         x="375"
         y="687"
         width="210.06445"
         height="216"
         id="rect396"
         style="opacity:0.2;fill:#c0c0c0;stroke:none" />
    </g>
    <g
       transform="translate(-6,-6)"
       id="g402">
      <rect
         x="368"
         y="680"
         width="210.06445"
         height="216"
         id="rect400"
         style="fill:#ffffff;stroke:none" />
    </g>
    <g
       transform="translate(-6,-6)"
       id="g406">
      <path
         d="M 368,680 H 578.06445 V 896 H 368 Z"
         stroke-miterlimit="10"
         id="path404"
         inkscape:connector-curvature="0"
         style="fill:none;stroke:#000000;stroke-miterlimit:10" />
    </g>
    <g
       transform="translate(-6,-6)"
       id="g414">
      <g
         id="g412">
        <path
           id="path408"
           d=""
           inkscape:connector-curvature="0"
           style="fill:none;stroke:none" />
        <text
           font-size="20px"
           font-style="normal"
           font-weight="bold"
           text-decoration="none"
           x="439.15527"
           y="706.5"
           id="text410"
           style="font-style:normal;font-weight:bold;font-size:20px;font-family:'Times New Roman';text-decoration:none;text-decoration-line:none;fill:#000000;stroke:none">Account</text>
      </g>
    </g>
    <g
       transform="translate(-6,-6)"
       id="g422">
      <g
         id="g420">
        <path
           id="path416"
           d=""
           inkscape:connector-curvature="0"
           style="fill:none;stroke:none" />
        <text
           font-size="20px"
           font-style="normal"
           font-weight="normal"
           text-decoration="none"
           x="372.5"
           y="728.5"
           id="text418"
           style="font-style:normal;font-weight:normal;font-size:20px;font-family:'Times New Roman';text-decoration:none;text-decoration-line:none;fill:#000000;stroke:none">(from Operating System)</text>
      </g>
    </g>
    <g
       transform="translate(-6,-6)"
       id="g426">
      <path
         d="m 31.810962,417.68 c 0,-4.79383 3.885842,-8.68 8.679272,-8.68 4.793431,0 8.679273,3.88617 8.679273,8.68 0,4.79383 -3.885842,8.68 -8.679273,8.68 -4.79343,0 -8.679272,-3.88617 -8.679272,-8.68 z"
         id="path424"
         inkscape:connector-curvature="0"
         style="fill:#ffffff;stroke:none" />
    </g>
    <g
       transform="translate(-6,-6)"
       id="g430">
      <path
         d="m 31.810962,417.68 c 0,-4.79383 3.885842,-8.68 8.679272,-8.68 4.793431,0 8.679273,3.88617 8.679273,8.68 0,4.79383 -3.885842,8.68 -8.679273,8.68 -4.79343,0 -8.679272,-3.88617 -8.679272,-8.68 z"
         stroke-miterlimit="10"
         id="path428"
         inkscape:connector-curvature="0"
         style="fill:none;stroke:#000000;stroke-miterlimit:10" />
    </g>
    <g
       transform="translate(-6,-6)"
       id="g434">
      <path
         d="m 40.490234,426.36 v 17.28"
         stroke-miterlimit="10"
         id="path432"
         inkscape:connector-curvature="0"
         style="fill:none;stroke:#000000;stroke-miterlimit:10" />
    </g>
    <g
       transform="translate(-6,-6)"
       id="g438">
      <path
         d="M 31.300416,432.84 H 49.680053"
         stroke-miterlimit="10"
         id="path436"
         inkscape:connector-curvature="0"
         style="fill:none;stroke:#000000;stroke-miterlimit:10" />
    </g>
    <g
       transform="translate(-6,-6)"
       id="g442">
      <path
         d="M 40.490234,443.64 27.726598,461"
         stroke-miterlimit="10"
         id="path440"
         inkscape:connector-curvature="0"
         style="fill:none;stroke:#000000;stroke-miterlimit:10" />
    </g>
    <g
       transform="translate(-6,-6)"
       id="g446">
      <path
         d="M 40.490234,443.64 53.253871,461"
         stroke-miterlimit="10"
         id="path444"
         inkscape:connector-curvature="0"
         style="fill:none;stroke:#000000;stroke-miterlimit:10" />
    </g>
    <g
       transform="translate(-6,-6)"
       id="g454">
      <g
         id="g452">
        <path
           id="path448"
           d=""
           inkscape:connector-curvature="0"
           style="fill:none;stroke:none" />
        <text
           font-size="20px"
           font-style="normal"
           font-weight="bold"
           text-decoration="none"
           x="21.608398"
           y="488.5"
           id="text450"
           style="font-style:normal;font-weight:bold;font-size:20px;font-family:'Times New Roman';text-decoration:none;text-decoration-line:none;fill:#000000;stroke:none">User</text>
      </g>
    </g>
    <g
       transform="translate(-6,-6)"
       id="g458">
      <path
         d="m 327,151 c 0,-22.09139 66.48571,-40 148.5,-40 82.01429,0 148.5,17.90861 148.5,40 0,22.09139 -66.48571,40 -148.5,40 C 393.48571,191 327,173.09139 327,151 Z"
         id="path456"
         inkscape:connector-curvature="0"
         style="opacity:0.2;fill:#c0c0c0;stroke:none" />
    </g>
    <g
       transform="translate(-6,-6)"
       id="g462">
      <path
         d="m 320,144 c 0,-22.09139 66.48571,-40 148.5,-40 82.01429,0 148.5,17.90861 148.5,40 0,22.09139 -66.48571,40 -148.5,40 C 386.48571,184 320,166.09139 320,144 Z"
         id="path460"
         inkscape:connector-curvature="0"
         style="fill:#ffffff;stroke:none" />
    </g>
    <g
       transform="translate(-6,-6)"
       id="g466">
      <path
         d="m 320,144 c 0,-22.09139 66.48571,-40 148.5,-40 82.01429,0 148.5,17.90861 148.5,40 0,22.09139 -66.48571,40 -148.5,40 C 386.48571,184 320,166.09139 320,144 Z"
         stroke-miterlimit="10"
         id="path464"
         inkscape:connector-curvature="0"
         style="fill:none;stroke:#000000;stroke-miterlimit:10" />
    </g>
    <g
       transform="translate(-6,-6)"
       id="g474">
      <g
         id="g472">
        <path
           id="path468"
           d=""
           inkscape:connector-curvature="0"
           style="fill:none;stroke:none" />
        <text
           font-size="20px"
           font-style="normal"
           font-weight="bold"
           text-decoration="none"
           x="427.93848"
           y="143.5"
           id="text470"
           style="font-style:normal;font-weight:bold;font-size:20px;font-family:'Times New Roman';text-decoration:none;text-decoration-line:none;fill:#000000;stroke:none">Shutdown</text>
      </g>
    </g>
    <g
       transform="translate(-6,-6)"
       id="g482">
      <g
         id="g480">
        <path
           id="path476"
           d=""
           inkscape:connector-curvature="0"
           style="fill:none;stroke:none" />
        <text
           font-size="20px"
           font-style="normal"
           font-weight="normal"
           text-decoration="none"
           x="367.96777"
           y="165.5"
           id="text478"
           style="font-style:normal;font-weight:normal;font-size:20px;font-family:'Times New Roman';text-decoration:none;text-decoration-line:none;fill:#000000;stroke:none">(from Operating System)</text>
      </g>
    </g>
    <g
       transform="translate(-6,-6)"
       id="g486">
      <path
         d="m 327,319 c 0,-22.09139 66.48571,-40 148.5,-40 82.01429,0 148.5,17.90861 148.5,40 0,22.09139 -66.48571,40 -148.5,40 C 393.48571,359 327,341.09139 327,319 Z"
         id="path484"
         inkscape:connector-curvature="0"
         style="opacity:0.2;fill:#c0c0c0;stroke:none" />
    </g>
    <g
       transform="translate(-6,-6)"
       id="g490">
      <path
         d="m 320,312 c 0,-22.09139 66.48571,-40 148.5,-40 82.01429,0 148.5,17.90861 148.5,40 0,22.09139 -66.48571,40 -148.5,40 C 386.48571,352 320,334.09139 320,312 Z"
         id="path488"
         inkscape:connector-curvature="0"
         style="fill:#ffffff;stroke:none" />
    </g>
    <g
       transform="translate(-6,-6)"
       id="g494">
      <path
         d="m 320,312 c 0,-22.09139 66.48571,-40 148.5,-40 82.01429,0 148.5,17.90861 148.5,40 0,22.09139 -66.48571,40 -148.5,40 C 386.48571,352 320,334.09139 320,312 Z"
         stroke-miterlimit="10"
         id="path492"
         inkscape:connector-curvature="0"
         style="fill:none;stroke:#000000;stroke-miterlimit:10" />
    </g>
    <g
       transform="translate(-6,-6)"
       id="g502">
      <g
         id="g500">
        <path
           id="path496"
           d=""
           inkscape:connector-curvature="0"
           style="fill:none;stroke:none" />
        <text
           font-size="20px"
           font-style="normal"
           font-weight="bold"
           text-decoration="none"
           x="426.83496"
           y="311.5"
           id="text498"
           style="font-style:normal;font-weight:bold;font-size:20px;font-family:'Times New Roman';text-decoration:none;text-decoration-line:none;fill:#000000;stroke:none">Rebooting</text>
      </g>
    </g>
    <g
       transform="translate(-6,-6)"
       id="g510">
      <g
         id="g508">
        <path
           id="path504"
           d=""
           inkscape:connector-curvature="0"
           style="fill:none;stroke:none" />
        <text
           font-size="20px"
           font-style="normal"
           font-weight="normal"
           text-decoration="none"
           x="367.96777"
           y="333.5"
           id="text506"
           style="font-style:normal;font-weight:normal;font-size:20px;font-family:'Times New Roman';text-decoration:none;text-decoration-line:none;fill:#000000;stroke:none">(from Operating System)</text>
      </g>
    </g>
    <g
       transform="translate(-6,-6)"
       id="g514">
      <path
         d="m 383,780.5 c 0,-20.71068 42.30909,-37.5 94.5,-37.5 52.19091,0 94.5,16.78932 94.5,37.5 0,20.71068 -42.30909,37.5 -94.5,37.5 -52.19091,0 -94.5,-16.78932 -94.5,-37.5 z"
         id="path512"
         inkscape:connector-curvature="0"
         style="opacity:0.2;fill:#c0c0c0;stroke:none" />
    </g>
    <g
       transform="translate(-6,-6)"
       id="g518">
      <path
         d="m 376,773.5 c 0,-20.71068 42.30909,-37.5 94.5,-37.5 52.19091,0 94.5,16.78932 94.5,37.5 0,20.71068 -42.30909,37.5 -94.5,37.5 -52.19091,0 -94.5,-16.78932 -94.5,-37.5 z"
         id="path516"
         inkscape:connector-curvature="0"
         style="fill:#ffffff;stroke:none" />
    </g>
    <g
       transform="translate(-6,-6)"
       id="g522">
      <path
         d="m 376,773.5 c 0,-20.71068 42.30909,-37.5 94.5,-37.5 52.19091,0 94.5,16.78932 94.5,37.5 0,20.71068 -42.30909,37.5 -94.5,37.5 -52.19091,0 -94.5,-16.78932 -94.5,-37.5 z"
         stroke-miterlimit="10"
         id="path520"
         inkscape:connector-curvature="0"
         style="fill:none;stroke:#000000;stroke-miterlimit:10" />
    </g>
    <g
       transform="translate(-6,-6)"
       id="g530">
      <g
         id="g528">
        <path
           id="path524"
           d=""
           inkscape:connector-curvature="0"
           style="fill:none;stroke:none" />
        <text
           font-size="20px"
           font-style="normal"
           font-weight="bold"
           text-decoration="none"
           x="422.63379"
           y="773"
           id="text526"
           style="font-style:normal;font-weight:bold;font-size:20px;font-family:'Times New Roman';text-decoration:none;text-decoration-line:none;fill:#000000;stroke:none">Logging off</text>
      </g>
    </g>
    <g
       transform="translate(-6,-6)"
       id="g538">
      <g
         id="g536">
        <path
           id="path532"
           d=""
           inkscape:connector-curvature="0"
           style="fill:none;stroke:none" />
        <text
           font-size="20px"
           font-style="normal"
           font-weight="normal"
           text-decoration="none"
           x="408.02441"
           y="795"
           id="text534"
           style="font-style:normal;font-weight:normal;font-size:20px;font-family:'Times New Roman';text-decoration:none;text-decoration-line:none;fill:#000000;stroke:none">(from Account)</text>
      </g>
    </g>
    <g
       transform="translate(-6,-6)"
       id="g542">
      <path
         d="m 383,860.5 c 0,-20.71068 42.30909,-37.5 94.5,-37.5 52.19091,0 94.5,16.78932 94.5,37.5 0,20.71068 -42.30909,37.5 -94.5,37.5 -52.19091,0 -94.5,-16.78932 -94.5,-37.5 z"
         id="path540"
         inkscape:connector-curvature="0"
         style="opacity:0.2;fill:#c0c0c0;stroke:none" />
    </g>
    <g
       transform="translate(-6,-6)"
       id="g546">
      <path
         d="m 376,853.5 c 0,-20.71068 42.30909,-37.5 94.5,-37.5 52.19091,0 94.5,16.78932 94.5,37.5 0,20.71068 -42.30909,37.5 -94.5,37.5 -52.19091,0 -94.5,-16.78932 -94.5,-37.5 z"
         id="path544"
         inkscape:connector-curvature="0"
         style="fill:#ffffff;stroke:none" />
    </g>
    <g
       transform="translate(-6,-6)"
       id="g550">
      <path
         d="m 376,853.5 c 0,-20.71068 42.30909,-37.5 94.5,-37.5 52.19091,0 94.5,16.78932 94.5,37.5 0,20.71068 -42.30909,37.5 -94.5,37.5 -52.19091,0 -94.5,-16.78932 -94.5,-37.5 z"
         stroke-miterlimit="10"
         id="path548"
         inkscape:connector-curvature="0"
         style="fill:none;stroke:#000000;stroke-miterlimit:10" />
    </g>
    <g
       transform="translate(-6,-6)"
       id="g558">
      <g
         id="g556">
        <path
           id="path552"
           d=""
           inkscape:connector-curvature="0"
           style="fill:none;stroke:none" />
        <text
           font-size="20px"
           font-style="normal"
           font-weight="bold"
           text-decoration="none"
           x="437.1748"
           y="853"
           id="text554"
           style="font-style:normal;font-weight:bold;font-size:20px;font-family:'Times New Roman';text-decoration:none;text-decoration-line:none;fill:#000000;stroke:none">Locking</text>
      </g>
    </g>
    <g
       transform="translate(-6,-6)"
       id="g566">
      <g
         id="g564">
        <path
           id="path560"
           d=""
           inkscape:connector-curvature="0"
           style="fill:none;stroke:none" />
        <text
           font-size="20px"
           font-style="normal"
           font-weight="normal"
           text-decoration="none"
           x="408.02441"
           y="875"
           id="text562"
           style="font-style:normal;font-weight:normal;font-size:20px;font-family:'Times New Roman';text-decoration:none;text-decoration-line:none;fill:#000000;stroke:none">(from Account)</text>
      </g>
    </g>
    <g
       transform="translate(-6,-6)"
       id="g570">
      <path
         d="M 320,144 H 136 V 448 H 65"
         stroke-miterlimit="10"
         id="path568"
         inkscape:connector-curvature="0"
         style="fill:none;stroke:#000000;stroke-miterlimit:10" />
    </g>
    <g
       transform="translate(-6,-6)"
       id="g574">
      <path
         d="M 320,312 H 136 V 448 H 65"
         stroke-miterlimit="10"
         id="path572"
         inkscape:connector-curvature="0"
         style="fill:none;stroke:#000000;stroke-miterlimit:10" />
    </g>
    <g
       transform="translate(-6,-6)"
       id="g578">
      <path
         d="M 376,776 H 136 V 448 H 65"
         stroke-miterlimit="10"
         id="path576"
         inkscape:connector-curvature="0"
         style="fill:none;stroke:#000000;stroke-miterlimit:10" />
    </g>
    <g
       transform="translate(-6,-6)"
       id="g582">
      <path
         d="M 376,856 H 136 V 448 H 65"
         stroke-miterlimit="10"
         id="path580"
         inkscape:connector-curvature="0"
         style="fill:none;stroke:#000000;stroke-miterlimit:10" />
    </g>
    <g
       transform="translate(-6,-6)"
       id="g586">
      <path
         d="M 327,546.5 C 327,518.05733 393.48571,495 475.5,495 557.51429,495 624,518.05733 624,546.5 624,574.94267 557.51429,598 475.5,598 393.48571,598 327,574.94267 327,546.5 Z"
         id="path584"
         inkscape:connector-curvature="0"
         style="opacity:0.2;fill:#c0c0c0;stroke:none" />
    </g>
    <g
       transform="translate(-6,-6)"
       id="g590">
      <path
         d="M 320,539.5 C 320,511.05733 386.48571,488 468.5,488 550.51429,488 617,511.05733 617,539.5 617,567.94267 550.51429,591 468.5,591 386.48571,591 320,567.94267 320,539.5 Z"
         id="path588"
         inkscape:connector-curvature="0"
         style="fill:#ffffff;stroke:none" />
    </g>
    <g
       transform="translate(-6,-6)"
       id="g594">
      <path
         d="M 320,539.5 C 320,511.05733 386.48571,488 468.5,488 550.51429,488 617,511.05733 617,539.5 617,567.94267 550.51429,591 468.5,591 386.48571,591 320,567.94267 320,539.5 Z"
         stroke-miterlimit="10"
         id="path592"
         inkscape:connector-curvature="0"
         style="fill:none;stroke:#000000;stroke-miterlimit:10" />
    </g>
    <g
       transform="translate(-6,-6)"
       id="g604">
      <g
         id="g602">
        <path
           id="path596"
           d=""
           inkscape:connector-curvature="0"
           style="fill:none;stroke:none" />
        <text
           font-size="20px"
           font-style="normal"
           font-weight="bold"
           text-decoration="none"
           x="375.73633"
           y="529"
           id="text598"
           style="font-style:normal;font-weight:bold;font-size:20px;font-family:'Times New Roman';text-decoration:none;text-decoration-line:none;fill:#000000;stroke:none">Canceling shutdown or</text>
        <text
           font-size="20px"
           font-style="normal"
           font-weight="bold"
           text-decoration="none"
           x="430.1748"
           y="549"
           id="text600"
           style="font-style:normal;font-weight:bold;font-size:20px;font-family:'Times New Roman';text-decoration:none;text-decoration-line:none;fill:#000000;stroke:none">rebooting</text>
      </g>
    </g>
    <g
       transform="translate(-6,-6)"
       id="g612">
      <g
         id="g610">
        <path
           id="path606"
           d=""
           inkscape:connector-curvature="0"
           style="fill:none;stroke:none" />
        <text
           font-size="20px"
           font-style="normal"
           font-weight="normal"
           text-decoration="none"
           x="367.96777"
           y="571"
           id="text608"
           style="font-style:normal;font-weight:normal;font-size:20px;font-family:'Times New Roman';text-decoration:none;text-decoration-line:none;fill:#000000;stroke:none">(from Operating System)</text>
      </g>
    </g>
    <g
       transform="translate(-6,-6)"
       id="g616">
      <path
         d="M 320,544 H 136 V 448 H 65"
         stroke-miterlimit="10"
         id="path614"
         inkscape:connector-curvature="0"
         style="fill:none;stroke:#000000;stroke-miterlimit:10" />
    </g>
    <g
       transform="translate(-6,-6)"
       id="g620">
      <path
         d="M 719,108.5 C 719,87.78932 785.48571,71 867.5,71 949.51429,71 1016,87.78932 1016,108.5 1016,129.21068 949.51429,146 867.5,146 785.48571,146 719,129.21068 719,108.5 Z"
         id="path618"
         inkscape:connector-curvature="0"
         style="opacity:0.2;fill:#c0c0c0;stroke:none" />
    </g>
    <g
       transform="translate(-6,-6)"
       id="g624">
      <path
         d="M 712,101.5 C 712,80.78932 778.48571,64 860.5,64 942.51429,64 1009,80.78932 1009,101.5 1009,122.21068 942.51429,139 860.5,139 778.48571,139 712,122.21068 712,101.5 Z"
         id="path622"
         inkscape:connector-curvature="0"
         style="fill:#ffffff;stroke:none" />
    </g>
    <g
       transform="translate(-6,-6)"
       id="g628">
      <path
         d="M 712,101.5 C 712,80.78932 778.48571,64 860.5,64 942.51429,64 1009,80.78932 1009,101.5 1009,122.21068 942.51429,139 860.5,139 778.48571,139 712,122.21068 712,101.5 Z"
         stroke-miterlimit="10"
         id="path626"
         inkscape:connector-curvature="0"
         style="fill:none;stroke:#000000;stroke-miterlimit:10" />
    </g>
    <g
       transform="translate(-6,-6)"
       id="g636">
      <g
         id="g634">
        <path
           id="path630"
           d=""
           inkscape:connector-curvature="0"
           style="fill:none;stroke:none" />
        <text
           font-size="20px"
           font-style="normal"
           font-weight="bold"
           text-decoration="none"
           x="770.50488"
           y="101"
           id="text632"
           style="font-style:normal;font-weight:bold;font-size:20px;font-family:'Times New Roman';text-decoration:none;text-decoration-line:none;fill:#000000;stroke:none">Shutdown remote host</text>
      </g>
    </g>
    <g
       transform="translate(-6,-6)"
       id="g644">
      <g
         id="g642">
        <path
           id="path638"
           d=""
           inkscape:connector-curvature="0"
           style="fill:none;stroke:none" />
        <text
           font-size="20px"
           font-style="normal"
           font-weight="normal"
           text-decoration="none"
           x="759.96777"
           y="123"
           id="text640"
           style="font-style:normal;font-weight:normal;font-size:20px;font-family:'Times New Roman';text-decoration:none;text-decoration-line:none;fill:#000000;stroke:none">(from Operating System)</text>
      </g>
    </g>
    <g
       transform="translate(-6,-6)"
       id="g648">
      <path
         d="m 719,188.5 c 0,-20.71068 66.48571,-37.5 148.5,-37.5 82.01429,0 148.5,16.78932 148.5,37.5 0,20.71068 -66.48571,37.5 -148.5,37.5 C 785.48571,226 719,209.21068 719,188.5 Z"
         id="path646"
         inkscape:connector-curvature="0"
         style="opacity:0.2;fill:#c0c0c0;stroke:none" />
    </g>
    <g
       transform="translate(-6,-6)"
       id="g652">
      <path
         d="m 712,181.5 c 0,-20.71068 66.48571,-37.5 148.5,-37.5 82.01429,0 148.5,16.78932 148.5,37.5 0,20.71068 -66.48571,37.5 -148.5,37.5 C 778.48571,219 712,202.21068 712,181.5 Z"
         id="path650"
         inkscape:connector-curvature="0"
         style="fill:#ffffff;stroke:none" />
    </g>
    <g
       transform="translate(-6,-6)"
       id="g656">
      <path
         d="m 712,181.5 c 0,-20.71068 66.48571,-37.5 148.5,-37.5 82.01429,0 148.5,16.78932 148.5,37.5 0,20.71068 -66.48571,37.5 -148.5,37.5 C 778.48571,219 712,202.21068 712,181.5 Z"
         stroke-miterlimit="10"
         id="path654"
         inkscape:connector-curvature="0"
         style="fill:none;stroke:#000000;stroke-miterlimit:10" />
    </g>
    <g
       transform="translate(-6,-6)"
       id="g664">
      <g
         id="g662">
        <path
           id="path658"
           d=""
           inkscape:connector-curvature="0"
           style="fill:none;stroke:none" />
        <text
           font-size="20px"
           font-style="normal"
           font-weight="bold"
           text-decoration="none"
           x="778.83496"
           y="181"
           id="text660"
           style="font-style:normal;font-weight:bold;font-size:20px;font-family:'Times New Roman';text-decoration:none;text-decoration-line:none;fill:#000000;stroke:none">Shutdown local host</text>
      </g>
    </g>
    <g
       transform="translate(-6,-6)"
       id="g672">
      <g
         id="g670">
        <path
           id="path666"
           d=""
           inkscape:connector-curvature="0"
           style="fill:none;stroke:none" />
        <text
           font-size="20px"
           font-style="normal"
           font-weight="normal"
           text-decoration="none"
           x="759.96777"
           y="203"
           id="text668"
           style="font-style:normal;font-weight:normal;font-size:20px;font-family:'Times New Roman';text-decoration:none;text-decoration-line:none;fill:#000000;stroke:none">(from Operating System)</text>
      </g>
    </g>
    <g
       transform="translate(-6,-6)"
       id="g676">
      <path
         d="m 712,104 h -40 v 40 h -55"
         stroke-miterlimit="10"
         id="path674"
         inkscape:connector-curvature="0"
         style="fill:none;stroke:#000000;stroke-miterlimit:10" />
    </g>
    <g
       transform="translate(-6,-6)"
       id="g680">
      <path
         d="M 637.32535,135.58096 617,144 l 20.32535,8.41904"
         id="path678"
         inkscape:connector-curvature="0"
         style="fill:#ffffff;stroke:none" />
    </g>
    <g
       transform="translate(-6,-6)"
       id="g684">
      <path
         d="M 637.32535,135.58096 617,144 l 20.32535,8.41904 v -16.83808"
         stroke-miterlimit="10"
         id="path682"
         inkscape:connector-curvature="0"
         style="fill:none;stroke:#000000;stroke-miterlimit:10" />
    </g>
    <g
       transform="translate(-6,-6)"
       id="g688">
      <path
         d="M 712,184 H 672 V 144 H 617"
         stroke-miterlimit="10"
         id="path686"
         inkscape:connector-curvature="0"
         style="fill:none;stroke:#000000;stroke-miterlimit:10" />
    </g>
    <g
       transform="translate(-6,-6)"
       id="g692">
      <path
         d="M 637.32535,135.58096 617,144 l 20.32535,8.41904"
         id="path690"
         inkscape:connector-curvature="0"
         style="fill:#ffffff;stroke:none" />
    </g>
    <g
       transform="translate(-6,-6)"
       id="g696">
      <path
         d="M 637.32535,135.58096 617,144 l 20.32535,8.41904 v -16.83808"
         stroke-miterlimit="10"
         id="path694"
         inkscape:connector-curvature="0"
         style="fill:none;stroke:#000000;stroke-miterlimit:10" />
    </g>
    <g
       transform="translate(-6,-6)"
       id="g700">
      <path
         d="m 719,276.5 c 0,-20.71068 66.48571,-37.5 148.5,-37.5 82.01429,0 148.5,16.78932 148.5,37.5 0,20.71068 -66.48571,37.5 -148.5,37.5 C 785.48571,314 719,297.21068 719,276.5 Z"
         id="path698"
         inkscape:connector-curvature="0"
         style="opacity:0.2;fill:#c0c0c0;stroke:none" />
    </g>
    <g
       transform="translate(-6,-6)"
       id="g704">
      <path
         d="m 712,269.5 c 0,-20.71068 66.48571,-37.5 148.5,-37.5 82.01429,0 148.5,16.78932 148.5,37.5 0,20.71068 -66.48571,37.5 -148.5,37.5 C 778.48571,307 712,290.21068 712,269.5 Z"
         id="path702"
         inkscape:connector-curvature="0"
         style="fill:#ffffff;stroke:none" />
    </g>
    <g
       transform="translate(-6,-6)"
       id="g708">
      <path
         d="m 712,269.5 c 0,-20.71068 66.48571,-37.5 148.5,-37.5 82.01429,0 148.5,16.78932 148.5,37.5 0,20.71068 -66.48571,37.5 -148.5,37.5 C 778.48571,307 712,290.21068 712,269.5 Z"
         stroke-miterlimit="10"
         id="path706"
         inkscape:connector-curvature="0"
         style="fill:none;stroke:#000000;stroke-miterlimit:10" />
    </g>
    <g
       transform="translate(-6,-6)"
       id="g716">
      <g
         id="g714">
        <path
           id="path710"
           d=""
           inkscape:connector-curvature="0"
           style="fill:none;stroke:none" />
        <text
           font-size="20px"
           font-style="normal"
           font-weight="bold"
           text-decoration="none"
           x="769.40137"
           y="269"
           id="text712"
           style="font-style:normal;font-weight:bold;font-size:20px;font-family:'Times New Roman';text-decoration:none;text-decoration-line:none;fill:#000000;stroke:none">Rebooting remote host</text>
      </g>
    </g>
    <g
       transform="translate(-6,-6)"
       id="g724">
      <g
         id="g722">
        <path
           id="path718"
           d=""
           inkscape:connector-curvature="0"
           style="fill:none;stroke:none" />
        <text
           font-size="20px"
           font-style="normal"
           font-weight="normal"
           text-decoration="none"
           x="759.96777"
           y="291"
           id="text720"
           style="font-style:normal;font-weight:normal;font-size:20px;font-family:'Times New Roman';text-decoration:none;text-decoration-line:none;fill:#000000;stroke:none">(from Operating System)</text>
      </g>
    </g>
    <g
       transform="translate(-6,-6)"
       id="g728">
      <path
         d="m 719,356.5 c 0,-20.71068 66.48571,-37.5 148.5,-37.5 82.01429,0 148.5,16.78932 148.5,37.5 0,20.71068 -66.48571,37.5 -148.5,37.5 C 785.48571,394 719,377.21068 719,356.5 Z"
         id="path726"
         inkscape:connector-curvature="0"
         style="opacity:0.2;fill:#c0c0c0;stroke:none" />
    </g>
    <g
       transform="translate(-6,-6)"
       id="g732">
      <path
         d="m 712,349.5 c 0,-20.71068 66.48571,-37.5 148.5,-37.5 82.01429,0 148.5,16.78932 148.5,37.5 0,20.71068 -66.48571,37.5 -148.5,37.5 C 778.48571,387 712,370.21068 712,349.5 Z"
         id="path730"
         inkscape:connector-curvature="0"
         style="fill:#ffffff;stroke:none" />
    </g>
    <g
       transform="translate(-6,-6)"
       id="g736">
      <path
         d="m 712,349.5 c 0,-20.71068 66.48571,-37.5 148.5,-37.5 82.01429,0 148.5,16.78932 148.5,37.5 0,20.71068 -66.48571,37.5 -148.5,37.5 C 778.48571,387 712,370.21068 712,349.5 Z"
         stroke-miterlimit="10"
         id="path734"
         inkscape:connector-curvature="0"
         style="fill:none;stroke:#000000;stroke-miterlimit:10" />
    </g>
    <g
       transform="translate(-6,-6)"
       id="g744">
      <g
         id="g742">
        <path
           id="path738"
           d=""
           inkscape:connector-curvature="0"
           style="fill:none;stroke:none" />
        <text
           font-size="20px"
           font-style="normal"
           font-weight="bold"
           text-decoration="none"
           x="777.73145"
           y="349"
           id="text740"
           style="font-style:normal;font-weight:bold;font-size:20px;font-family:'Times New Roman';text-decoration:none;text-decoration-line:none;fill:#000000;stroke:none">Rebooting local host</text>
      </g>
    </g>
    <g
       transform="translate(-6,-6)"
       id="g752">
      <g
         id="g750">
        <path
           id="path746"
           d=""
           inkscape:connector-curvature="0"
           style="fill:none;stroke:none" />
        <text
           font-size="20px"
           font-style="normal"
           font-weight="normal"
           text-decoration="none"
           x="759.96777"
           y="371"
           id="text748"
           style="font-style:normal;font-weight:normal;font-size:20px;font-family:'Times New Roman';text-decoration:none;text-decoration-line:none;fill:#000000;stroke:none">(from Operating System)</text>
      </g>
    </g>
    <g
       transform="translate(-6,-6)"
       id="g756">
      <path
         d="M 712,352 H 672 V 312 H 617"
         stroke-miterlimit="10"
         id="path754"
         inkscape:connector-curvature="0"
         style="fill:none;stroke:#000000;stroke-miterlimit:10" />
    </g>
    <g
       transform="translate(-6,-6)"
       id="g760">
      <path
         d="M 637.32535,303.58096 617,312 l 20.32535,8.41904"
         id="path758"
         inkscape:connector-curvature="0"
         style="fill:#ffffff;stroke:none" />
    </g>
    <g
       transform="translate(-6,-6)"
       id="g764">
      <path
         d="M 637.32535,303.58096 617,312 l 20.32535,8.41904 v -16.83808"
         stroke-miterlimit="10"
         id="path762"
         inkscape:connector-curvature="0"
         style="fill:none;stroke:#000000;stroke-miterlimit:10" />
    </g>
    <g
       transform="translate(-6,-6)"
       id="g768">
      <path
         d="m 712,272 h -40 v 40 h -55"
         stroke-miterlimit="10"
         id="path766"
         inkscape:connector-curvature="0"
         style="fill:none;stroke:#000000;stroke-miterlimit:10" />
    </g>
    <g
       transform="translate(-6,-6)"
       id="g772">
      <path
         d="M 637.32535,303.58096 617,312 l 20.32535,8.41904"
         id="path770"
         inkscape:connector-curvature="0"
         style="fill:#ffffff;stroke:none" />
    </g>
    <g
       transform="translate(-6,-6)"
       id="g776">
      <path
         d="M 637.32535,303.58096 617,312 l 20.32535,8.41904 v -16.83808"
         stroke-miterlimit="10"
         id="path774"
         inkscape:connector-curvature="0"
         style="fill:none;stroke:#000000;stroke-miterlimit:10" />
    </g>
    <g
       transform="translate(-6,-6)"
       id="g780">
      <path
         d="m 719,480.5 c 0,-36.17465 66.48571,-65.5 148.5,-65.5 82.01429,0 148.5,29.32535 148.5,65.5 0,36.17465 -66.48571,65.5 -148.5,65.5 C 785.48571,546 719,516.67465 719,480.5 Z"
         id="path778"
         inkscape:connector-curvature="0"
         style="opacity:0.2;fill:#c0c0c0;stroke:none" />
    </g>
    <g
       transform="translate(-6,-6)"
       id="g784">
      <path
         d="m 712,473.5 c 0,-36.17465 66.48571,-65.5 148.5,-65.5 82.01429,0 148.5,29.32535 148.5,65.5 0,36.17465 -66.48571,65.5 -148.5,65.5 C 778.48571,539 712,509.67465 712,473.5 Z"
         id="path782"
         inkscape:connector-curvature="0"
         style="fill:#ffffff;stroke:none" />
    </g>
    <g
       transform="translate(-6,-6)"
       id="g788">
      <path
         d="m 712,473.5 c 0,-36.17465 66.48571,-65.5 148.5,-65.5 82.01429,0 148.5,29.32535 148.5,65.5 0,36.17465 -66.48571,65.5 -148.5,65.5 C 778.48571,539 712,509.67465 712,473.5 Z"
         stroke-miterlimit="10"
         id="path786"
         inkscape:connector-curvature="0"
         style="fill:none;stroke:#000000;stroke-miterlimit:10" />
    </g>
    <g
       transform="translate(-6,-6)"
       id="g800">
      <g
         id="g798">
        <path
           id="path790"
           d=""
           inkscape:connector-curvature="0"
           style="fill:none;stroke:none" />
        <text
           font-size="20px"
           font-style="normal"
           font-weight="bold"
           text-decoration="none"
           x="767.73633"
           y="453"
           id="text792"
           style="font-style:normal;font-weight:bold;font-size:20px;font-family:'Times New Roman';text-decoration:none;text-decoration-line:none;fill:#000000;stroke:none">Canceling shutdown or</text>
        <text
           font-size="20px"
           font-style="normal"
           font-weight="bold"
           text-decoration="none"
           x="779.41113"
           y="473"
           id="text794"
           style="font-style:normal;font-weight:bold;font-size:20px;font-family:'Times New Roman';text-decoration:none;text-decoration-line:none;fill:#000000;stroke:none">rebooting on remote</text>
        <text
           font-size="20px"
           font-style="normal"
           font-weight="bold"
           text-decoration="none"
           x="839.93848"
           y="493"
           id="text796"
           style="font-style:normal;font-weight:bold;font-size:20px;font-family:'Times New Roman';text-decoration:none;text-decoration-line:none;fill:#000000;stroke:none">hosts</text>
      </g>
    </g>
    <g
       transform="translate(-6,-6)"
       id="g808">
      <g
         id="g806">
        <path
           id="path802"
           d=""
           inkscape:connector-curvature="0"
           style="fill:none;stroke:none" />
        <text
           font-size="20px"
           font-style="normal"
           font-weight="normal"
           text-decoration="none"
           x="759.96777"
           y="515"
           id="text804"
           style="font-style:normal;font-weight:normal;font-size:20px;font-family:'Times New Roman';text-decoration:none;text-decoration-line:none;fill:#000000;stroke:none">(from Operating System)</text>
      </g>
    </g>
    <g
       transform="translate(-6,-6)"
       id="g812">
      <path
         d="m 719,610.5 c 0,-28.44267 66.48571,-51.5 148.5,-51.5 82.01429,0 148.5,23.05733 148.5,51.5 0,28.44267 -66.48571,51.5 -148.5,51.5 C 785.48571,662 719,638.94267 719,610.5 Z"
         id="path810"
         inkscape:connector-curvature="0"
         style="opacity:0.2;fill:#c0c0c0;stroke:none" />
    </g>
    <g
       transform="translate(-6,-6)"
       id="g816">
      <path
         d="m 712,603.5 c 0,-28.44267 66.48571,-51.5 148.5,-51.5 82.01429,0 148.5,23.05733 148.5,51.5 0,28.44267 -66.48571,51.5 -148.5,51.5 C 778.48571,655 712,631.94267 712,603.5 Z"
         id="path814"
         inkscape:connector-curvature="0"
         style="fill:#ffffff;stroke:none" />
    </g>
    <g
       transform="translate(-6,-6)"
       id="g820">
      <path
         d="m 712,603.5 c 0,-28.44267 66.48571,-51.5 148.5,-51.5 82.01429,0 148.5,23.05733 148.5,51.5 0,28.44267 -66.48571,51.5 -148.5,51.5 C 778.48571,655 712,631.94267 712,603.5 Z"
         stroke-miterlimit="10"
         id="path818"
         inkscape:connector-curvature="0"
         style="fill:none;stroke:#000000;stroke-miterlimit:10" />
    </g>
    <g
       transform="translate(-6,-6)"
       id="g830">
      <g
         id="g828">
        <path
           id="path822"
           d=""
           inkscape:connector-curvature="0"
           style="fill:none;stroke:none" />
        <text
           font-size="20px"
           font-style="normal"
           font-weight="bold"
           text-decoration="none"
           x="767.73633"
           y="593"
           id="text824"
           style="font-style:normal;font-weight:bold;font-size:20px;font-family:'Times New Roman';text-decoration:none;text-decoration-line:none;fill:#000000;stroke:none">Canceling shutdown or</text>
        <text
           font-size="20px"
           font-style="normal"
           font-weight="bold"
           text-decoration="none"
           x="768.57129"
           y="613"
           id="text826"
           style="font-style:normal;font-weight:bold;font-size:20px;font-family:'Times New Roman';text-decoration:none;text-decoration-line:none;fill:#000000;stroke:none">rebooting on local host</text>
      </g>
    </g>
    <g
       transform="translate(-6,-6)"
       id="g838">
      <g
         id="g836">
        <path
           id="path832"
           d=""
           inkscape:connector-curvature="0"
           style="fill:none;stroke:none" />
        <text
           font-size="20px"
           font-style="normal"
           font-weight="normal"
           text-decoration="none"
           x="759.96777"
           y="635"
           id="text834"
           style="font-style:normal;font-weight:normal;font-size:20px;font-family:'Times New Roman';text-decoration:none;text-decoration-line:none;fill:#000000;stroke:none">(from Operating System)</text>
      </g>
    </g>
    <g
       transform="translate(-6,-6)"
       id="g842">
      <path
         d="m 712,472 h -40 v 64 h -55"
         stroke-miterlimit="10"
         id="path840"
         inkscape:connector-curvature="0"
         style="fill:none;stroke:#000000;stroke-miterlimit:10" />
    </g>
    <g
       transform="translate(-6,-6)"
       id="g846">
      <path
         d="M 637.32535,527.58096 617,536 l 20.32535,8.41904"
         id="path844"
         inkscape:connector-curvature="0"
         style="fill:#ffffff;stroke:none" />
    </g>
    <g
       transform="translate(-6,-6)"
       id="g850">
      <path
         d="M 637.32535,527.58096 617,536 l 20.32535,8.41904 v -16.83808"
         stroke-miterlimit="10"
         id="path848"
         inkscape:connector-curvature="0"
         style="fill:none;stroke:#000000;stroke-miterlimit:10" />
    </g>
    <g
       transform="translate(-6,-6)"
       id="g854">
      <path
         d="M 712,608 H 672 V 536 H 617"
         stroke-miterlimit="10"
         id="path852"
         inkscape:connector-curvature="0"
         style="fill:none;stroke:#000000;stroke-miterlimit:10" />
    </g>
    <g
       transform="translate(-6,-6)"
       id="g858">
      <path
         d="M 637.32535,527.58096 617,536 l 20.32535,8.41904"
         id="path856"
         inkscape:connector-curvature="0"
         style="fill:#ffffff;stroke:none" />
    </g>
    <g
       transform="translate(-6,-6)"
       id="g862">
      <path
         d="M 637.32535,527.58096 617,536 l 20.32535,8.41904 v -16.83808"
         stroke-miterlimit="10"
         id="path860"
         inkscape:connector-curvature="0"
         style="fill:none;stroke:#000000;stroke-miterlimit:10" />
    </g>
  </g>
</svg>
