<?xml version="1.0" encoding="UTF-8" standalone="no"?>
<svg
   xmlns:dc="http://purl.org/dc/elements/1.1/"
   xmlns:cc="http://creativecommons.org/ns#"
   xmlns:rdf="http://www.w3.org/1999/02/22-rdf-syntax-ns#"
   xmlns:svg="http://www.w3.org/2000/svg"
   xmlns="http://www.w3.org/2000/svg"
   xmlns:sodipodi="http://sodipodi.sourceforge.net/DTD/sodipodi-0.dtd"
   xmlns:inkscape="http://www.inkscape.org/namespaces/inkscape"
   version="1.1"
   width="627"
   height="588"
   id="svg408"
   sodipodi:docname="UseCaseDiagram.svg"
   inkscape:version="0.92.4 (5da689c313, 2019-01-14)">
  <metadata
     id="metadata412">
    <rdf:RDF>
      <cc:Work
         rdf:about="">
        <dc:format>image/svg+xml</dc:format>
        <dc:type
           rdf:resource="http://purl.org/dc/dcmitype/StillImage" />
        <dc:title></dc:title>
      </cc:Work>
    </rdf:RDF>
  </metadata>
  <sodipodi:namedview
     pagecolor="#ffffff"
     bordercolor="#666666"
     borderopacity="1"
     objecttolerance="10"
     gridtolerance="10"
     guidetolerance="10"
     inkscape:pageopacity="0"
     inkscape:pageshadow="2"
     inkscape:window-width="1920"
     inkscape:window-height="1057"
     id="namedview410"
     showgrid="false"
     inkscape:zoom="1.135219"
     inkscape:cx="684.50921"
     inkscape:cy="256.82751"
     inkscape:window-x="-8"
     inkscape:window-y="-8"
     inkscape:window-maximized="1"
     inkscape:current-layer="g406" />
  <defs
     id="defs2" />
  <g
     id="g406">
    <g
       transform="translate(-6,-6)"
       id="g166">
      <rect
         x="319"
         y="23"
         width="312"
         height="568"
         id="rect164"
         style="opacity:0.2;fill:#c0c0c0;stroke:none" />
    </g>
    <g
       transform="translate(-6,-6)"
       id="g170">
      <rect
         x="312"
         y="16"
         width="312"
         height="568"
         id="rect168"
         style="fill:#ffffff;stroke:none" />
    </g>
    <g
       transform="translate(-6,-6)"
       id="g174">
      <path
         d="M 312,16 H 624 V 584 H 312 Z"
         stroke-miterlimit="10"
         id="path172"
         inkscape:connector-curvature="0"
         style="fill:none;stroke:#000000;stroke-miterlimit:10" />
    </g>
    <g
       transform="translate(-6,-6)"
       id="g182">
      <g
         id="g180">
        <path
           id="path176"
           d=""
           inkscape:connector-curvature="0"
           style="fill:none;stroke:none" />
        <text
           font-size="20px"
           font-style="normal"
           font-weight="bold"
           text-decoration="none"
           x="396.06641"
           y="42.5"
           id="text178"
           style="font-style:normal;font-weight:bold;font-size:20px;font-family:'Times New Roman';text-decoration:none;text-decoration-line:none;fill:#000000;stroke:none">Operating System</text>
      </g>
    </g>
    <g
       transform="translate(-6,-6)"
       id="g186">
      <rect
         x="375"
         y="359"
         width="210.06445"
         height="216"
         id="rect184"
         style="opacity:0.2;fill:#c0c0c0;stroke:none" />
    </g>
    <g
       transform="translate(-6,-6)"
       id="g190">
      <rect
         x="368"
         y="352"
         width="210.06445"
         height="216"
         id="rect188"
         style="fill:#ffffff;stroke:none" />
    </g>
    <g
       transform="translate(-6,-6)"
       id="g194">
      <path
         d="M 368,352 H 578.06445 V 568 H 368 Z"
         stroke-miterlimit="10"
         id="path192"
         inkscape:connector-curvature="0"
         style="fill:none;stroke:#000000;stroke-miterlimit:10" />
    </g>
    <g
       transform="translate(-6,-6)"
       id="g202">
      <g
         id="g200">
        <path
           id="path196"
           d=""
           inkscape:connector-curvature="0"
           style="fill:none;stroke:none" />
        <text
           font-size="20px"
           font-style="normal"
           font-weight="bold"
           text-decoration="none"
           x="439.15527"
           y="378.5"
           id="text198"
           style="font-style:normal;font-weight:bold;font-size:20px;font-family:'Times New Roman';text-decoration:none;text-decoration-line:none;fill:#000000;stroke:none">Account</text>
      </g>
    </g>
    <g
       transform="translate(-6,-6)"
       id="g210">
      <g
         id="g208">
        <path
           id="path204"
           d=""
           inkscape:connector-curvature="0"
           style="fill:none;stroke:none" />
        <text
           font-size="20px"
           font-style="normal"
           font-weight="normal"
           text-decoration="none"
           x="372.5"
           y="400.5"
           id="text206"
           style="font-style:normal;font-weight:normal;font-size:20px;font-family:'Times New Roman';text-decoration:none;text-decoration-line:none;fill:#000000;stroke:none">(from Operating System)</text>
      </g>
    </g>
    <g
       transform="translate(-6,-6)"
       id="g214">
      <path
         d="m 31.810962,257.68 c 0,-4.79383 3.885842,-8.68 8.679272,-8.68 4.793431,0 8.679273,3.88617 8.679273,8.68 0,4.79383 -3.885842,8.68 -8.679273,8.68 -4.79343,0 -8.679272,-3.88617 -8.679272,-8.68 z"
         id="path212"
         inkscape:connector-curvature="0"
         style="fill:#ffffff;stroke:none" />
    </g>
    <g
       transform="translate(-6,-6)"
       id="g218">
      <path
         d="m 31.810962,257.68 c 0,-4.79383 3.885842,-8.68 8.679272,-8.68 4.793431,0 8.679273,3.88617 8.679273,8.68 0,4.79383 -3.885842,8.68 -8.679273,8.68 -4.79343,0 -8.679272,-3.88617 -8.679272,-8.68 z"
         stroke-miterlimit="10"
         id="path216"
         inkscape:connector-curvature="0"
         style="fill:none;stroke:#000000;stroke-miterlimit:10" />
    </g>
    <g
       transform="translate(-6,-6)"
       id="g222">
      <path
         d="m 40.490234,266.36 v 17.28"
         stroke-miterlimit="10"
         id="path220"
         inkscape:connector-curvature="0"
         style="fill:none;stroke:#000000;stroke-miterlimit:10" />
    </g>
    <g
       transform="translate(-6,-6)"
       id="g226">
      <path
         d="M 31.300416,272.84 H 49.680053"
         stroke-miterlimit="10"
         id="path224"
         inkscape:connector-curvature="0"
         style="fill:none;stroke:#000000;stroke-miterlimit:10" />
    </g>
    <g
       transform="translate(-6,-6)"
       id="g230">
      <path
         d="M 40.490234,283.64 27.726598,301"
         stroke-miterlimit="10"
         id="path228"
         inkscape:connector-curvature="0"
         style="fill:none;stroke:#000000;stroke-miterlimit:10" />
    </g>
    <g
       transform="translate(-6,-6)"
       id="g234">
      <path
         d="M 40.490234,283.64 53.253871,301"
         stroke-miterlimit="10"
         id="path232"
         inkscape:connector-curvature="0"
         style="fill:none;stroke:#000000;stroke-miterlimit:10" />
    </g>
    <g
       transform="translate(-6,-6)"
       id="g242">
      <g
         id="g240">
        <path
           id="path236"
           d=""
           inkscape:connector-curvature="0"
           style="fill:none;stroke:none" />
        <text
           font-size="20px"
           font-style="normal"
           font-weight="bold"
           text-decoration="none"
           x="21.608398"
           y="328.5"
           id="text238"
           style="font-style:normal;font-weight:bold;font-size:20px;font-family:'Times New Roman';text-decoration:none;text-decoration-line:none;fill:#000000;stroke:none">User</text>
      </g>
    </g>
    <g
       transform="translate(-6,-6)"
       id="g246">
      <path
         d="M 327,100.5 C 327,79.78932 393.48571,63 475.5,63 557.51429,63 624,79.78932 624,100.5 624,121.21068 557.51429,138 475.5,138 393.48571,138 327,121.21068 327,100.5 Z"
         id="path244"
         inkscape:connector-curvature="0"
         style="opacity:0.2;fill:#c0c0c0;stroke:none" />
    </g>
    <g
       transform="translate(-6,-6)"
       id="g250">
      <path
         d="M 320,93.5 C 320,72.78932 386.48571,56 468.5,56 550.51429,56 617,72.78932 617,93.5 617,114.21068 550.51429,131 468.5,131 386.48571,131 320,114.21068 320,93.5 Z"
         id="path248"
         inkscape:connector-curvature="0"
         style="fill:#ffffff;stroke:none" />
    </g>
    <g
       transform="translate(-6,-6)"
       id="g254">
      <path
         d="M 320,93.5 C 320,72.78932 386.48571,56 468.5,56 550.51429,56 617,72.78932 617,93.5 617,114.21068 550.51429,131 468.5,131 386.48571,131 320,114.21068 320,93.5 Z"
         stroke-miterlimit="10"
         id="path252"
         inkscape:connector-curvature="0"
         style="fill:none;stroke:#000000;stroke-miterlimit:10" />
    </g>
    <g
       transform="translate(-6,-6)"
       id="g262">
      <g
         id="g260">
        <path
           id="path256"
           d=""
           inkscape:connector-curvature="0"
           style="fill:none;stroke:none" />
        <text
           font-size="20px"
           font-style="normal"
           font-weight="bold"
           text-decoration="none"
           x="427.93848"
           y="93"
           id="text258"
           style="font-style:normal;font-weight:bold;font-size:20px;font-family:'Times New Roman';text-decoration:none;text-decoration-line:none;fill:#000000;stroke:none">Shutdown</text>
      </g>
    </g>
    <g
       transform="translate(-6,-6)"
       id="g270">
      <g
         id="g268">
        <path
           id="path264"
           d=""
           inkscape:connector-curvature="0"
           style="fill:none;stroke:none" />
        <text
           font-size="20px"
           font-style="normal"
           font-weight="normal"
           text-decoration="none"
           x="367.96777"
           y="115"
           id="text266"
           style="font-style:normal;font-weight:normal;font-size:20px;font-family:'Times New Roman';text-decoration:none;text-decoration-line:none;fill:#000000;stroke:none">(from Operating System)</text>
      </g>
    </g>
    <g
       transform="translate(-6,-6)"
       id="g274">
      <path
         d="M 327,188.5 C 327,167.78932 393.48571,151 475.5,151 557.51429,151 624,167.78932 624,188.5 624,209.21068 557.51429,226 475.5,226 393.48571,226 327,209.21068 327,188.5 Z"
         id="path272"
         inkscape:connector-curvature="0"
         style="opacity:0.2;fill:#c0c0c0;stroke:none" />
    </g>
    <g
       transform="translate(-6,-6)"
       id="g278">
      <path
         d="M 320,181.5 C 320,160.78932 386.48571,144 468.5,144 550.51429,144 617,160.78932 617,181.5 617,202.21068 550.51429,219 468.5,219 386.48571,219 320,202.21068 320,181.5 Z"
         id="path276"
         inkscape:connector-curvature="0"
         style="fill:#ffffff;stroke:none" />
    </g>
    <g
       transform="translate(-6,-6)"
       id="g282">
      <path
         d="M 320,181.5 C 320,160.78932 386.48571,144 468.5,144 550.51429,144 617,160.78932 617,181.5 617,202.21068 550.51429,219 468.5,219 386.48571,219 320,202.21068 320,181.5 Z"
         stroke-miterlimit="10"
         id="path280"
         inkscape:connector-curvature="0"
         style="fill:none;stroke:#000000;stroke-miterlimit:10" />
    </g>
    <g
       transform="translate(-6,-6)"
       id="g290">
      <g
         id="g288">
        <path
           id="path284"
           d=""
           inkscape:connector-curvature="0"
           style="fill:none;stroke:none" />
        <text
           font-size="20px"
           font-style="normal"
           font-weight="bold"
           text-decoration="none"
           x="426.83496"
           y="181"
           id="text286"
           style="font-style:normal;font-weight:bold;font-size:20px;font-family:'Times New Roman';text-decoration:none;text-decoration-line:none;fill:#000000;stroke:none">Rebooting</text>
      </g>
    </g>
    <g
       transform="translate(-6,-6)"
       id="g298">
      <g
         id="g296">
        <path
           id="path292"
           d=""
           inkscape:connector-curvature="0"
           style="fill:none;stroke:none" />
        <text
           font-size="20px"
           font-style="normal"
           font-weight="normal"
           text-decoration="none"
           x="367.96777"
           y="203"
           id="text294"
           style="font-style:normal;font-weight:normal;font-size:20px;font-family:'Times New Roman';text-decoration:none;text-decoration-line:none;fill:#000000;stroke:none">(from Operating System)</text>
      </g>
    </g>
    <g
       transform="translate(-6,-6)"
       id="g302">
      <path
         d="m 383,452.5 c 0,-20.71068 42.30909,-37.5 94.5,-37.5 52.19091,0 94.5,16.78932 94.5,37.5 0,20.71068 -42.30909,37.5 -94.5,37.5 -52.19091,0 -94.5,-16.78932 -94.5,-37.5 z"
         id="path300"
         inkscape:connector-curvature="0"
         style="opacity:0.2;fill:#c0c0c0;stroke:none" />
    </g>
    <g
       transform="translate(-6,-6)"
       id="g306">
      <path
         d="m 376,445.5 c 0,-20.71068 42.30909,-37.5 94.5,-37.5 52.19091,0 94.5,16.78932 94.5,37.5 0,20.71068 -42.30909,37.5 -94.5,37.5 -52.19091,0 -94.5,-16.78932 -94.5,-37.5 z"
         id="path304"
         inkscape:connector-curvature="0"
         style="fill:#ffffff;stroke:none" />
    </g>
    <g
       transform="translate(-6,-6)"
       id="g310">
      <path
         d="m 376,445.5 c 0,-20.71068 42.30909,-37.5 94.5,-37.5 52.19091,0 94.5,16.78932 94.5,37.5 0,20.71068 -42.30909,37.5 -94.5,37.5 -52.19091,0 -94.5,-16.78932 -94.5,-37.5 z"
         stroke-miterlimit="10"
         id="path308"
         inkscape:connector-curvature="0"
         style="fill:none;stroke:#000000;stroke-miterlimit:10" />
    </g>
    <g
       transform="translate(-6,-6)"
       id="g318">
      <g
         id="g316">
        <path
           id="path312"
           d=""
           inkscape:connector-curvature="0"
           style="fill:none;stroke:none" />
        <text
           font-size="20px"
           font-style="normal"
           font-weight="bold"
           text-decoration="none"
           x="422.63379"
           y="445"
           id="text314"
           style="font-style:normal;font-weight:bold;font-size:20px;font-family:'Times New Roman';text-decoration:none;text-decoration-line:none;fill:#000000;stroke:none">Logging off</text>
      </g>
    </g>
    <g
       transform="translate(-6,-6)"
       id="g326">
      <g
         id="g324">
        <path
           id="path320"
           d=""
           inkscape:connector-curvature="0"
           style="fill:none;stroke:none" />
        <text
           font-size="20px"
           font-style="normal"
           font-weight="normal"
           text-decoration="none"
           x="408.02441"
           y="467"
           id="text322"
           style="font-style:normal;font-weight:normal;font-size:20px;font-family:'Times New Roman';text-decoration:none;text-decoration-line:none;fill:#000000;stroke:none">(from Account)</text>
      </g>
    </g>
    <g
       transform="translate(-6,-6)"
       id="g330">
      <path
         d="m 383,532.5 c 0,-20.71068 42.30909,-37.5 94.5,-37.5 52.19091,0 94.5,16.78932 94.5,37.5 0,20.71068 -42.30909,37.5 -94.5,37.5 -52.19091,0 -94.5,-16.78932 -94.5,-37.5 z"
         id="path328"
         inkscape:connector-curvature="0"
         style="opacity:0.2;fill:#c0c0c0;stroke:none" />
    </g>
    <g
       transform="translate(-6,-6)"
       id="g334">
      <path
         d="m 376,525.5 c 0,-20.71068 42.30909,-37.5 94.5,-37.5 52.19091,0 94.5,16.78932 94.5,37.5 0,20.71068 -42.30909,37.5 -94.5,37.5 -52.19091,0 -94.5,-16.78932 -94.5,-37.5 z"
         id="path332"
         inkscape:connector-curvature="0"
         style="fill:#ffffff;stroke:none" />
    </g>
    <g
       transform="translate(-6,-6)"
       id="g338">
      <path
         d="m 376,525.5 c 0,-20.71068 42.30909,-37.5 94.5,-37.5 52.19091,0 94.5,16.78932 94.5,37.5 0,20.71068 -42.30909,37.5 -94.5,37.5 -52.19091,0 -94.5,-16.78932 -94.5,-37.5 z"
         stroke-miterlimit="10"
         id="path336"
         inkscape:connector-curvature="0"
         style="fill:none;stroke:#000000;stroke-miterlimit:10" />
    </g>
    <g
       transform="translate(-6,-6)"
       id="g346">
      <g
         id="g344">
        <path
           id="path340"
           d=""
           inkscape:connector-curvature="0"
           style="fill:none;stroke:none" />
        <text
           font-size="20px"
           font-style="normal"
           font-weight="bold"
           text-decoration="none"
           x="437.1748"
           y="525"
           id="text342"
           style="font-style:normal;font-weight:bold;font-size:20px;font-family:'Times New Roman';text-decoration:none;text-decoration-line:none;fill:#000000;stroke:none">Locking</text>
      </g>
    </g>
    <g
       transform="translate(-6,-6)"
       id="g354">
      <g
         id="g352">
        <path
           id="path348"
           d=""
           inkscape:connector-curvature="0"
           style="fill:none;stroke:none" />
        <text
           font-size="20px"
           font-style="normal"
           font-weight="normal"
           text-decoration="none"
           x="408.02441"
           y="547"
           id="text350"
           style="font-style:normal;font-weight:normal;font-size:20px;font-family:'Times New Roman';text-decoration:none;text-decoration-line:none;fill:#000000;stroke:none">(from Account)</text>
      </g>
    </g>
    <g
       transform="translate(-6,-6)"
       id="g358">
      <path
         d="M 320,96 H 136 V 288 H 65"
         stroke-miterlimit="10"
         id="path356"
         inkscape:connector-curvature="0"
         style="fill:none;stroke:#000000;stroke-miterlimit:10" />
    </g>
    <g
       transform="translate(-6,-6)"
       id="g362">
      <path
         d="M 320,184 H 136 V 288 H 65"
         stroke-miterlimit="10"
         id="path360"
         inkscape:connector-curvature="0"
         style="fill:none;stroke:#000000;stroke-miterlimit:10" />
    </g>
    <g
       transform="translate(-6,-6)"
       id="g366">
      <path
         d="M 376,453 H 136 V 288 H 65"
         stroke-miterlimit="10"
         id="path364"
         inkscape:connector-curvature="0"
         style="fill:none;stroke:#000000;stroke-miterlimit:10" />
    </g>
    <g
       transform="translate(-6,-6)"
       id="g370">
      <path
         d="M 376,533 H 136 V 288 H 65"
         stroke-miterlimit="10"
         id="path368"
         inkscape:connector-curvature="0"
         style="fill:none;stroke:#000000;stroke-miterlimit:10" />
    </g>
    <g
       transform="translate(-6,-6)"
       id="g374">
      <path
         d="M 327,290.5 C 327,262.05733 393.48571,239 475.5,239 557.51429,239 624,262.05733 624,290.5 624,318.94267 557.51429,342 475.5,342 393.48571,342 327,318.94267 327,290.5 Z"
         id="path372"
         inkscape:connector-curvature="0"
         style="opacity:0.2;fill:#c0c0c0;stroke:none" />
    </g>
    <g
       transform="translate(-6,-6)"
       id="g378">
      <path
         d="M 320,283.5 C 320,255.05733 386.48571,232 468.5,232 550.51429,232 617,255.05733 617,283.5 617,311.94267 550.51429,335 468.5,335 386.48571,335 320,311.94267 320,283.5 Z"
         id="path376"
         inkscape:connector-curvature="0"
         style="fill:#ffffff;stroke:none" />
    </g>
    <g
       transform="translate(-6,-6)"
       id="g382">
      <path
         d="M 320,283.5 C 320,255.05733 386.48571,232 468.5,232 550.51429,232 617,255.05733 617,283.5 617,311.94267 550.51429,335 468.5,335 386.48571,335 320,311.94267 320,283.5 Z"
         stroke-miterlimit="10"
         id="path380"
         inkscape:connector-curvature="0"
         style="fill:none;stroke:#000000;stroke-miterlimit:10" />
    </g>
    <g
       transform="translate(-6,-6)"
       id="g392">
      <g
         id="g390">
        <path
           id="path384"
           d=""
           inkscape:connector-curvature="0"
           style="fill:none;stroke:none" />
        <text
           font-size="20px"
           font-style="normal"
           font-weight="bold"
           text-decoration="none"
           x="375.73633"
           y="273"
           id="text386"
           style="font-style:normal;font-weight:bold;font-size:20px;font-family:'Times New Roman';text-decoration:none;text-decoration-line:none;fill:#000000;stroke:none">Canceling shutdown or</text>
        <text
           font-size="20px"
           font-style="normal"
           font-weight="bold"
           text-decoration="none"
           x="430.1748"
           y="293"
           id="text388"
           style="font-style:normal;font-weight:bold;font-size:20px;font-family:'Times New Roman';text-decoration:none;text-decoration-line:none;fill:#000000;stroke:none">rebooting</text>
      </g>
    </g>
    <g
       transform="translate(-6,-6)"
       id="g400">
      <g
         id="g398">
        <path
           id="path394"
           d=""
           inkscape:connector-curvature="0"
           style="fill:none;stroke:none" />
        <text
           font-size="20px"
           font-style="normal"
           font-weight="normal"
           text-decoration="none"
           x="367.96777"
           y="315"
           id="text396"
           style="font-style:normal;font-weight:normal;font-size:20px;font-family:'Times New Roman';text-decoration:none;text-decoration-line:none;fill:#000000;stroke:none">(from Operating System)</text>
      </g>
    </g>
    <g
       transform="translate(-6,-6)"
       id="g404">
      <path
         d="M 320,288 H 65"
         stroke-miterlimit="10"
         id="path402"
         inkscape:connector-curvature="0"
         style="fill:none;stroke:#000000;stroke-miterlimit:10" />
    </g>
  </g>
</svg>
